<?xml version="1.0" encoding="utf-8"?>
<!-- Generator: Adobe Illustrator 26.0.1, SVG Export Plug-In . SVG Version: 6.00 Build 0)  -->
<svg version="1.1" id="Layer_1" xmlns="http://www.w3.org/2000/svg" xmlns:xlink="http://www.w3.org/1999/xlink" x="0px" y="0px"
	 viewBox="0 0 62 19.68" style="enable-background:new 0 0 62 19.68;" xml:space="preserve">
<style type="text/css">
	.st0{fill:#070707;}
	.st1{fill:#1D6C2F;}
	.st2{fill:#F66706;}
</style>
<g>
	<g>
		<path class="st0" d="M29.19,7.78c0-0.99,0-1.98,0-2.97c0-0.49,0.21-0.86,0.63-1.1c0.16-0.09,0.33-0.14,0.51-0.14
			c0.7,0,1.41-0.02,2.11,0.01c1.58,0.07,2.86,1.16,3.17,2.71c0.18,0.89,0.16,1.77-0.18,2.62c-0.41,1.06-1.2,1.68-2.29,1.95
			c-0.4,0.1-0.81,0.14-1.22,0.14c-0.88,0-1.76,0-2.64,0c-0.09,0-0.12-0.02-0.12-0.11C29.19,9.85,29.19,8.82,29.19,7.78z M30.84,7.28
			c0,0.75,0,1.5,0,2.26c0,0.04-0.03,0.11,0.07,0.1c0.45-0.01,0.89,0.02,1.34-0.02c0.72-0.08,1.24-0.44,1.55-1.1
			c0.29-0.63,0.3-1.29,0.17-1.96c-0.19-0.98-0.94-1.6-1.93-1.62c-0.36-0.01-0.73,0-1.1-0.01c-0.09,0-0.1,0.03-0.1,0.11
			C30.84,5.78,30.84,6.53,30.84,7.28z"/>
		<path class="st0" d="M24.63,11.1c-1.42,0-2.39-0.6-3.06-1.71c-0.89-1.47-0.78-3.73,0.76-5.11c0.55-0.5,1.21-0.74,1.95-0.79
			c1.48-0.09,2.56,0.55,3.28,1.83c0.42,0.75,0.55,1.56,0.47,2.41c-0.1,1.07-0.56,1.96-1.38,2.65C26.04,10.89,25.32,11.1,24.63,11.1z
			 M26.46,7.29c0-0.33-0.03-0.66-0.15-0.97c-0.27-0.73-0.76-1.21-1.56-1.29C23.94,4.96,23.28,5.25,22.9,6
			c-0.43,0.83-0.43,1.69-0.03,2.53c0.32,0.67,0.88,1.02,1.64,1.03c0.73,0.01,1.28-0.31,1.65-0.94C26.39,8.2,26.46,7.75,26.46,7.29z"
			/>
		<path class="st0" d="M59.63,7.35c-0.01,1.13-0.43,2.14-1.3,2.94c-0.56,0.51-1.23,0.77-1.98,0.81c-0.72,0.04-1.41-0.08-2.02-0.48
			c-0.81-0.53-1.35-1.27-1.58-2.21c-0.37-1.5-0.08-2.85,1-3.99c0.53-0.56,1.2-0.86,1.96-0.93c0.62-0.06,1.23,0,1.8,0.26
			c0.76,0.34,1.28,0.93,1.67,1.65C59.5,5.99,59.63,6.63,59.63,7.35z M54.18,7.37c0,0.09,0.01,0.26,0.04,0.43
			c0.08,0.5,0.28,0.93,0.64,1.28c0.71,0.69,2.28,0.74,2.91-0.54c0.38-0.78,0.39-1.59,0.06-2.39c-0.26-0.63-0.74-1.02-1.43-1.11
			c-0.76-0.09-1.43,0.15-1.88,0.87C54.27,6.33,54.18,6.8,54.18,7.37z"/>
		<path class="st0" d="M17.47,11.09c-0.84,0.01-1.59-0.24-2.3-0.66c-0.05-0.03-0.06-0.07-0.07-0.12c-0.04-0.66,0.62-1.06,1.2-0.79
			c0.47,0.22,0.98,0.29,1.49,0.17c0.26-0.06,0.45-0.21,0.51-0.49c0.05-0.27-0.05-0.49-0.27-0.66c-0.26-0.2-0.56-0.32-0.86-0.44
			c-0.37-0.15-0.75-0.31-1.1-0.52c-0.72-0.43-1.1-1.06-1.11-1.91c-0.01-0.57,0.15-1.08,0.56-1.49c0.38-0.38,0.85-0.59,1.37-0.66
			c0.98-0.14,1.88,0.09,2.76,0.51c0.05,0.02,0.05,0.05,0.05,0.09C19.68,4.7,19.09,5.14,18.51,5c-0.27-0.07-0.55-0.15-0.83-0.16
			c-0.27-0.01-0.54,0.02-0.77,0.17c-0.3,0.19-0.34,0.53-0.11,0.8c0.12,0.13,0.27,0.22,0.43,0.3c0.44,0.22,0.9,0.39,1.34,0.61
			c0.44,0.22,0.82,0.49,1.1,0.91c0.29,0.43,0.35,0.91,0.33,1.42c-0.06,1.16-0.92,1.84-1.88,2.01c-0.1,0.02-0.2,0.03-0.3,0.04
			C17.7,11.09,17.58,11.09,17.47,11.09z"/>
		<path class="st0" d="M37.05,7.79c0-0.99,0-1.98,0-2.97c0-0.74,0.51-1.25,1.25-1.25c1.14,0,2.28,0,3.42,0
			c0.09,0,0.12,0.02,0.12,0.12c0,0.73-0.52,1.25-1.25,1.25c-0.6,0-1.19,0-1.79,0c-0.09,0-0.11,0.02-0.11,0.11c0,0.45,0,0.89,0,1.34
			c0,0.08,0.02,0.11,0.1,0.1c0.59,0,1.19,0,1.78,0c0.15,0,0.15,0,0.15,0.15c0,0.61-0.4,1.1-1,1.2c-0.24,0.04-0.49,0.01-0.74,0.02
			c-0.09,0-0.22-0.03-0.27,0.02c-0.06,0.06-0.02,0.18-0.02,0.28c0,0.45,0,0.9,0,1.35c0,0.12,0.04,0.14,0.15,0.14
			c0.98,0,1.97,0,2.95-0.01c0.1,0,0.12,0.03,0.12,0.12c-0.02,0.61-0.36,1.06-0.91,1.21C40.91,10.99,40.82,11,40.73,11
			c-1.19,0-2.38,0-3.57,0c-0.08,0-0.11-0.02-0.11-0.11C37.05,9.86,37.05,8.82,37.05,7.79z"/>
		<path class="st0" d="M49.63,11.1c-0.94,0-1.74-0.27-2.38-0.94c-0.52-0.54-0.84-1.19-0.97-1.93c-0.17-0.92-0.12-1.83,0.28-2.69
			c0.38-0.84,0.96-1.51,1.85-1.83c1.15-0.42,2.27-0.33,3.33,0.33c0.09,0.06,0.12,0.12,0.1,0.23c-0.1,0.62-0.68,1.01-1.28,0.86
			c-0.48-0.12-0.96-0.16-1.43,0.01c-0.78,0.28-1.22,0.86-1.37,1.66c-0.1,0.57-0.05,1.12,0.21,1.64c0.41,0.8,1.22,1.22,2.11,1.1
			c0.21-0.03,0.42-0.08,0.62-0.15c0.62-0.21,1.23,0.25,1.22,0.9c0,0.05-0.01,0.08-0.06,0.11C51.17,10.84,50.43,11.11,49.63,11.1z"/>
		<path class="st0" d="M44.85,7.29c0,1.2,0,2.4,0,3.6c0,0.09-0.02,0.12-0.11,0.11c-0.48-0.01-0.95,0-1.43,0
			c-0.08,0-0.1-0.01-0.1-0.1c0-2.04,0-4.08,0-6.12c0-0.7,0.52-1.22,1.23-1.22c0.11,0,0.22,0,0.32,0c0.07,0,0.09,0.02,0.09,0.09
			c0,0.31,0,0.63,0,0.94C44.85,5.5,44.85,6.39,44.85,7.29z"/>
	</g>
	<g>
		<path class="st1" d="M41.32,12.75c0,0.04,0,0.08,0,0.12c0,1.29,0,2.58,0,3.87c0,0.09-0.02,0.12-0.11,0.12
			c-0.17-0.01-0.34-0.01-0.51,0c-0.08,0-0.1-0.03-0.1-0.1c0-0.5,0-1,0-1.5c0-1.11,0-2.23,0-3.34c0-0.1,0.02-0.13,0.12-0.12
			c0.29,0.01,0.57,0,0.86,0c0.07,0,0.1,0.02,0.13,0.09c0.52,1.29,1.04,2.59,1.56,3.88c0.02,0.04,0.03,0.09,0.07,0.13
			c0.13-0.32,0.26-0.64,0.39-0.95c0.41-1.01,0.82-2.03,1.23-3.04c0.03-0.07,0.06-0.1,0.14-0.1c0.29,0.01,0.58,0,0.87,0
			c0.07,0,0.1,0.01,0.1,0.09c0,1.63,0,3.26,0,4.88c0,0.07-0.02,0.09-0.09,0.09c-0.18,0-0.35-0.01-0.53,0c-0.09,0-0.1-0.03-0.1-0.11
			c0-1.29,0-2.58,0-3.87c0-0.04,0.01-0.09-0.01-0.14c-0.05,0.02-0.05,0.07-0.06,0.11c-0.53,1.3-1.05,2.61-1.58,3.91
			c-0.03,0.07-0.06,0.1-0.14,0.09c-0.16-0.01-0.31-0.01-0.47,0c-0.08,0-0.11-0.03-0.13-0.1c-0.51-1.28-1.03-2.55-1.54-3.83
			c-0.02-0.06-0.05-0.12-0.08-0.18C41.34,12.75,41.33,12.75,41.32,12.75z"/>
		<path class="st1" d="M52.05,12.74c-0.12,0.3-0.25,0.61-0.37,0.91c-0.42,1.04-0.84,2.07-1.25,3.11c-0.03,0.07-0.06,0.09-0.14,0.09
			c-0.15-0.01-0.31-0.01-0.46,0c-0.08,0-0.11-0.02-0.14-0.1c-0.35-0.87-0.7-1.73-1.05-2.6c-0.18-0.44-0.36-0.89-0.54-1.33
			c-0.01-0.03-0.02-0.05-0.06-0.08c0,0.04,0,0.08,0,0.12c0,1.29,0,2.57,0,3.86c0,0.1-0.03,0.13-0.13,0.13
			c-0.16-0.01-0.32-0.01-0.48,0c-0.09,0-0.12-0.02-0.12-0.12c0-0.85,0-1.69,0-2.54c0-0.76,0-1.53,0-2.29c0-0.09,0.02-0.12,0.11-0.12
			c0.29,0.01,0.58,0,0.87,0c0.07,0,0.1,0.02,0.13,0.09c0.52,1.29,1.04,2.58,1.56,3.87c0.02,0.04,0.03,0.08,0.06,0.15
			c0.07-0.17,0.13-0.31,0.19-0.46c0.48-1.18,0.96-2.36,1.43-3.55c0.03-0.07,0.06-0.1,0.14-0.1c0.29,0.01,0.59,0,0.88,0
			c0.08,0,0.09,0.02,0.09,0.09c0,1.62,0,3.25,0,4.87c0,0.07-0.02,0.1-0.09,0.09c-0.18-0.01-0.35-0.01-0.53,0
			c-0.08,0-0.1-0.02-0.1-0.1c0-0.68,0-1.36,0-2.03c0-0.62,0-1.24,0-1.86c0-0.04,0-0.08,0-0.12C52.08,12.74,52.07,12.74,52.05,12.74z
			"/>
		<path class="st1" d="M59.25,14.31c-0.02,0.94-0.35,1.71-1.14,2.25c-0.41,0.28-0.88,0.41-1.37,0.44c-0.59,0.04-1.15-0.06-1.66-0.36
			c-0.73-0.42-1.13-1.07-1.25-1.89c-0.09-0.64,0-1.25,0.32-1.81c0.38-0.66,0.96-1.07,1.7-1.22c0.82-0.17,1.59-0.07,2.3,0.4
			c0.62,0.42,0.96,1.01,1.07,1.74c0.01,0.05,0.02,0.1,0.02,0.15C59.23,14.11,59.24,14.21,59.25,14.31z M54.49,14.28
			c0.02,0.79,0.29,1.42,0.97,1.81c0.69,0.39,1.41,0.39,2.1,0c0.6-0.34,0.89-0.89,0.95-1.56c0.05-0.56-0.07-1.08-0.42-1.53
			c-0.56-0.71-1.62-0.95-2.48-0.54C54.84,12.83,54.53,13.49,54.49,14.28z"/>
		<path class="st1" d="M39.32,14.32c0,0.81,0,1.62,0,2.42c0,0.09-0.03,0.11-0.11,0.11c-0.17-0.01-0.34-0.01-0.5,0
			c-0.09,0-0.1-0.03-0.1-0.11c0-1.4,0-2.8,0-4.2c0-0.22,0-0.44,0-0.66c0-0.08,0.03-0.1,0.1-0.1c0.17,0.01,0.34,0.01,0.51,0
			c0.09,0,0.1,0.03,0.1,0.11C39.32,12.7,39.32,13.51,39.32,14.32z"/>
	</g>
	<g>
		<path class="st2" d="M8.91,6.93c0.39,0,0.76,0.12,1.13,0.2c0.73,0.17,1.45,0.4,2.16,0.63c0.34,0.11,0.5,0.41,0.4,0.72
			c-0.07,0.22-0.26,0.37-0.49,0.38c-0.63,0.01-1.26,0.07-1.89,0.13C9.78,9.03,9.33,9.05,8.92,9.25C8.56,9.44,8.24,9.68,8,10.02
			c-0.43,0.61-0.87,1.21-1.26,1.84c-0.03,0.04-0.05,0.09-0.08,0.13C6.53,12.22,6.26,12.32,6,12.23c-0.25-0.09-0.41-0.33-0.37-0.59
			c0.11-0.59,0.24-1.17,0.39-1.75c0.1-0.4,0.22-0.8,0.36-1.2c0.22-0.66,0.68-1.12,1.28-1.44C8.08,7.03,8.49,6.93,8.91,6.93z"/>
		<path class="st2" d="M4.31,6.84C4.32,6.62,4.3,6.39,4.23,6.17C4,5.51,3.77,4.84,3.48,4.2C3.38,3.99,3.45,3.75,3.62,3.62
			c0.19-0.14,0.44-0.13,0.6,0.03c0.31,0.31,0.6,0.63,0.88,0.96c0.28,0.32,0.54,0.65,0.8,0.99c0.3,0.41,0.42,0.88,0.39,1.38
			C6.28,7.56,6.1,8.07,5.69,8.48C5.25,8.9,4.78,9.29,4.29,9.66c-0.2,0.16-0.4,0.32-0.61,0.47c-0.26,0.18-0.59,0.08-0.71-0.2
			C2.9,9.77,2.92,9.61,3.02,9.47c0.36-0.54,0.68-1.11,1-1.67C4.19,7.5,4.3,7.19,4.31,6.84z"/>
		<path class="st2" d="M9.03,6.27c-0.86,0-1.64-0.63-1.82-1.42C7.08,4.23,6.99,3.61,6.9,2.98c-0.01-0.08-0.02-0.17,0-0.26
			c0.04-0.15,0.18-0.26,0.34-0.28c0.16-0.01,0.3,0.07,0.38,0.22c0.23,0.46,0.49,0.89,0.74,1.34C8.65,4.52,9.08,4.8,9.65,4.89
			c0.5,0.08,0.99,0.18,1.49,0.23c0.19,0.02,0.33,0.16,0.35,0.34c0.02,0.2-0.08,0.37-0.28,0.42C10.7,6,10.19,6.12,9.67,6.19
			C9.44,6.23,9.22,6.26,9.03,6.27z"/>
		<path class="st2" d="M9.42,11.45c-0.53,0-0.92-0.42-0.92-0.96c0-0.49,0.43-0.9,0.93-0.89c0.51,0.01,0.92,0.42,0.91,0.93
			C10.35,11.05,9.93,11.46,9.42,11.45z"/>
		<path class="st2" d="M2.37,6.82c0-0.43,0.35-0.78,0.78-0.78c0.44,0,0.79,0.35,0.79,0.79c0,0.43-0.35,0.78-0.78,0.78
			C2.71,7.62,2.37,7.27,2.37,6.82z"/>
		<path class="st2" d="M8.79,3.84c0-0.36,0.27-0.64,0.63-0.64c0.35,0,0.64,0.28,0.64,0.64c0,0.35-0.29,0.64-0.64,0.64
			C9.07,4.47,8.79,4.19,8.79,3.84z"/>
	</g>
</g>
</svg>
